<svg width="250" height="94" viewBox="0 0 250 94" fill="none" xmlns="http://www.w3.org/2000/svg">
<path d="M47.2656 25.0938H29.5312V74H19.7266V25.0938H2.14844V17.125H47.2656V25.0938ZM65.1953 74H55.3516V17.125H65.1953V74ZM140.664 55.4844C140.091 61.5521 137.852 66.2917 133.945 69.7031C130.039 73.0885 124.844 74.7812 118.359 74.7812C113.828 74.7812 109.831 73.7135 106.367 71.5781C102.93 69.4167 100.273 66.3568 98.3984 62.3984C96.5234 58.4401 95.5469 53.8438 95.4688 48.6094V43.2969C95.4688 37.9323 96.4193 33.2057 98.3203 29.1172C100.221 25.0286 102.943 21.8776 106.484 19.6641C110.052 17.4505 114.167 16.3438 118.828 16.3438C125.104 16.3438 130.156 18.0495 133.984 21.4609C137.812 24.8724 140.039 29.6901 140.664 35.9141H130.82C130.352 31.8255 129.154 28.8828 127.227 27.0859C125.326 25.263 122.526 24.3516 118.828 24.3516C114.531 24.3516 111.224 25.9271 108.906 29.0781C106.615 32.2031 105.443 36.7995 105.391 42.8672V47.9062C105.391 54.0521 106.484 58.7396 108.672 61.9688C110.885 65.1979 114.115 66.8125 118.359 66.8125C122.24 66.8125 125.156 65.9401 127.109 64.1953C129.062 62.4505 130.299 59.5469 130.82 55.4844H140.664ZM167.261 65.7236H153.491L150.61 74H144.189L157.617 38.4531H163.159L176.611 74H170.166L167.261 65.7236ZM155.225 60.7432H165.527L160.376 45.9971L155.225 60.7432ZM199.243 64.8447C199.243 63.2822 198.69 62.0778 197.583 61.2314C196.493 60.3851 194.515 59.5306 191.65 58.668C188.786 57.8053 186.507 56.8451 184.814 55.7871C181.576 53.7526 179.956 51.0996 179.956 47.8281C179.956 44.9635 181.12 42.6035 183.447 40.748C185.791 38.8926 188.826 37.9648 192.554 37.9648C195.028 37.9648 197.233 38.4206 199.17 39.332C201.107 40.2435 202.629 41.5456 203.735 43.2383C204.842 44.9147 205.396 46.7783 205.396 48.8291H199.243C199.243 46.9736 198.657 45.5251 197.485 44.4834C196.33 43.4255 194.67 42.8965 192.505 42.8965C190.487 42.8965 188.916 43.3278 187.793 44.1904C186.686 45.0531 186.133 46.2575 186.133 47.8037C186.133 49.1058 186.735 50.1963 187.939 51.0752C189.144 51.9378 191.13 52.7842 193.896 53.6143C196.663 54.4281 198.885 55.3639 200.562 56.4219C202.238 57.4635 203.467 58.668 204.248 60.0352C205.029 61.3861 205.42 62.973 205.42 64.7959C205.42 67.7581 204.281 70.1182 202.002 71.876C199.74 73.6175 196.663 74.4883 192.773 74.4883C190.202 74.4883 187.834 74.0163 185.669 73.0723C183.521 72.112 181.844 70.7936 180.64 69.1172C179.451 67.4408 178.857 65.4876 178.857 63.2578H185.034C185.034 65.276 185.701 66.8385 187.036 67.9453C188.371 69.0521 190.283 69.6055 192.773 69.6055C194.922 69.6055 196.533 69.1742 197.607 68.3115C198.698 67.4326 199.243 66.277 199.243 64.8447ZM231.616 58.1309H217.017V69.0684H234.082V74H210.84V38.4531H233.911V43.4336H217.017V53.248H231.616V58.1309ZM245.63 74H239.478V38.4531H245.63V74Z" fill="white"/>
</svg>
