<svg width="90" height="90" viewBox="0 0 90 90" fill="none" xmlns="http://www.w3.org/2000/svg">
<path d="M90 45C90 49.4337 89.3587 53.717 88.1632 57.7634C87.0083 61.6814 85.3329 65.3769 83.2166 68.7689C75.2728 81.5158 61.1266 90 45 90C20.1469 90 0 69.8531 0 45C0 44.1108 0.0254058 43.2291 0.0769043 42.353C0.925598 27.7219 8.76297 14.9675 20.3014 7.37663C27.391 2.71294 35.8786 0 45 0C69.8531 0 90 20.1469 90 45Z" fill="#7230B4"/>
<path d="M36.397 33.7926V68.7689H48.4058L65.3474 78.4499L61.2708 68.7689H77.9823C80.0986 65.3769 81.7733 61.6814 82.9289 57.7634V33.7926H36.397Z" fill="#713775"/>
<path d="M45.6132 7.37663V42.353H33.6051L16.6628 52.0347L20.7388 42.353H0.0769043C0.925598 27.7219 8.76297 14.9675 20.3014 7.37663H45.6132Z" fill="#713775"/>
<path d="M2.94983 7.37663H49.4817V42.353H2.94983V7.37663Z" fill="#F74F4F"/>
<path d="M25.5274 40.1667L20.5307 52.034L42.3914 39.5425L25.5274 40.1667Z" fill="#F74F4F"/>
<path d="M21.9479 24.8641C21.9479 26.2896 20.793 27.4452 19.3675 27.4452C17.9427 27.4452 16.7871 26.2896 16.7871 24.8641C16.7871 23.4393 17.9427 22.2837 19.3675 22.2837C20.793 22.2837 21.9479 23.4393 21.9479 24.8641Z" fill="#3D4159"/>
<path d="M28.7965 24.8641C28.7965 26.2896 27.6416 27.4452 26.2161 27.4452C24.7906 27.4452 23.6357 26.2896 23.6357 24.8641C23.6357 23.4393 24.7906 22.2837 26.2161 22.2837C27.6416 22.2837 28.7965 23.4393 28.7965 24.8641Z" fill="#3D4159"/>
<path d="M35.6451 24.8641C35.6451 26.2896 34.4895 27.4452 33.0647 27.4452C31.6393 27.4452 30.4836 26.2896 30.4836 24.8641C30.4836 23.4393 31.6393 22.2837 33.0647 22.2837C34.4895 22.2837 35.6451 23.4393 35.6451 24.8641Z" fill="#3D4159"/>
<path d="M38.893 33.7926H49.4817V42.353H38.893V33.7926Z" fill="#DD3033"/>
<path d="M88.1632 33.7926V57.7634C87.0083 61.6814 85.3329 65.3769 83.2166 68.7689H41.6313V33.7926H88.1632Z" fill="#FFE152"/>
<path d="M65.5849 66.5826L70.5817 78.4499L48.7209 65.9585L65.5849 66.5826Z" fill="#FFE152"/>
<path d="M74.3259 51.2801C74.3259 52.7055 73.1703 53.8612 71.7448 53.8612C70.3201 53.8612 69.1644 52.7055 69.1644 51.2801C69.1644 49.8553 70.3201 48.6996 71.7448 48.6996C73.1703 48.6996 74.3259 49.8553 74.3259 51.2801Z" fill="#3D4159"/>
<path d="M67.4773 51.2801C67.4773 52.7055 66.3217 53.8612 64.8969 53.8612C63.4715 53.8612 62.3158 52.7055 62.3158 51.2801C62.3158 49.8553 63.4715 48.6996 64.8969 48.6996C66.3217 48.6996 67.4773 49.8553 67.4773 51.2801Z" fill="#3D4159"/>
<path d="M60.6287 51.2801C60.6287 52.7055 59.4731 53.8612 58.0476 53.8612C56.6228 53.8612 55.4672 52.7055 55.4672 51.2801C55.4672 49.8553 56.6228 48.6996 58.0476 48.6996C59.4731 48.6996 60.6287 49.8553 60.6287 51.2801Z" fill="#3D4159"/>
</svg>
