<svg width="109" height="109" viewBox="0 0 109 109" fill="none" xmlns="http://www.w3.org/2000/svg">
<path d="M38.8714 85.456L22.6098 94.3261C21.6556 94.8465 20.798 95.4861 20 96.1833C29.4809 104.177 41.7198 109 55.0918 109C68.3651 109 80.5258 104.249 89.9801 96.3642C89.1081 95.628 88.162 94.9657 87.1131 94.4434L69.6999 85.7378C67.45 84.6128 66.0288 82.3135 66.0288 79.7983V72.9663C66.5183 72.4089 67.0777 71.6932 67.6762 70.848C70.0495 67.4957 71.8449 63.8082 73.0892 59.9397C75.3226 59.2508 76.9679 57.188 76.9679 54.7365V47.4438C76.9679 45.8396 76.2543 44.4062 75.1458 43.4026V32.8604C75.1458 32.8604 77.3114 16.4549 55.0939 16.4549C32.8764 16.4549 35.042 32.8604 35.042 32.8604V43.4026C33.9314 44.4062 33.2198 45.8396 33.2198 47.4438V54.7365C33.2198 56.6574 34.2296 58.3479 35.7412 59.3248C37.5634 67.2571 42.3347 72.9663 42.3347 72.9663V79.6297C42.3327 82.0564 41.0041 84.292 38.8714 85.456Z" fill="white"/>
<path d="M55.4316 0.00817673C25.3373 -0.505974 0.522322 23.474 0.00817065 53.5683C-0.283867 70.632 7.32145 85.968 19.4307 96.1667C20.2225 95.4757 21.0719 94.8423 22.0159 94.3281L38.2775 85.458C40.4102 84.294 41.7387 82.0584 41.7387 79.6275V72.9641C41.7387 72.9641 36.9653 67.255 35.1452 59.3227C33.6357 58.3458 32.6239 56.6573 32.6239 54.7344V47.4417C32.6239 45.8375 33.3375 44.4041 34.446 43.4005V32.8583C34.446 32.8583 32.2804 16.4528 54.4979 16.4528C76.7154 16.4528 74.5498 32.8583 74.5498 32.8583V43.4005C75.6604 44.4041 76.3719 45.8375 76.3719 47.4417V54.7344C76.3719 57.1859 74.7267 59.2486 72.4932 59.9376C71.2489 63.8061 69.4535 67.4936 67.0802 70.8458C66.4817 71.6911 65.9223 72.4068 65.4328 72.9641V79.7962C65.4328 82.3114 66.854 84.6127 69.1039 85.7356L86.5172 94.4413C87.5619 94.9636 88.5059 95.6238 89.3758 96.358C101.119 86.5645 108.706 71.9214 108.988 55.4316C109.506 25.3373 85.5279 0.522328 55.4316 0.00817673Z" fill="#7230B4"/>
<path d="M45.1522 109C44.8688 109 44.5854 108.893 44.3695 108.68C43.9366 108.254 43.9366 107.564 44.3695 107.138L78.6919 73.3199C79.1248 72.8934 79.8245 72.8934 80.2574 73.3199C80.6903 73.7464 80.6903 74.4359 80.2574 74.8624L45.935 108.68C45.7191 108.893 45.4357 109 45.1522 109Z" fill="#EFCE4A"/>
<path d="M45.104 109C44.825 109 44.546 108.893 44.3335 108.681L29.3196 93.6665C28.8935 93.2404 28.8935 92.5517 29.3196 92.1256C29.7457 91.6994 30.4344 91.6994 30.8605 92.1256L45.8745 107.14C46.3006 107.566 46.3006 108.255 45.8745 108.681C45.6619 108.893 45.383 109 45.104 109Z" fill="#EFCE4A"/>
</svg>
