<svg width="61" height="165" viewBox="0 0 61 165" fill="none" xmlns="http://www.w3.org/2000/svg">
<path d="M38.7031 36.0156H22.2969L11.3594 3.20312H49.6406L38.7031 36.0156Z" fill="#672F9E"/>
<path d="M57.8438 142.656L30.5 161.797L3.15625 142.656L11.3594 55.1562L22.2969 36.0156H38.7031L49.6406 55.1562L57.8438 142.656Z" fill="#7230B4"/>
<path d="M30.5 120.612C28.6221 118.958 26.2058 118.046 23.7037 118.046C21.2016 118.046 18.7853 118.958 16.9074 120.612C16.0235 121.384 15.3151 122.336 14.8297 123.404C14.3443 124.473 14.0931 125.633 14.0931 126.806C14.0931 127.98 14.3443 129.14 14.8297 130.208C15.3151 131.277 16.0235 132.229 16.9074 133.001L30.5 145.391L44.0898 133.001C44.9737 132.229 45.6822 131.277 46.1676 130.208C46.653 129.14 46.9041 127.98 46.9041 126.806C46.9041 125.633 46.653 124.473 46.1676 123.404C45.6822 122.336 44.9737 121.384 44.0898 120.612C42.2122 118.959 39.7964 118.047 37.2949 118.047C34.7934 118.047 32.3777 118.959 30.5 120.612Z" fill="#FFDB57"/>
<path d="M22.2969 11.4062H27.7656V16.875H22.2969V11.4062Z" fill="#F7C6DC"/>
<path d="M27.7656 16.875H33.2344V22.3438H27.7656V16.875Z" fill="#F7C6DC"/>
<path d="M22.2969 85.5078L16.8555 84.9609L19.5898 57.6172C19.6227 57.2869 19.7153 56.9654 19.8633 56.6684L25.332 45.7309L30.2266 48.1754L24.982 58.6645L22.2969 85.5078Z" fill="#EB8CB3"/>
<path d="M34.0149 105.175L42.2175 96.9724L46.0839 100.839L37.8813 109.041L34.0149 105.175Z" fill="#F4F4E6"/>
<path d="M34.0149 94.2374L42.2175 86.0349L46.0839 89.9013L37.8813 98.1038L34.0149 94.2374Z" fill="#F4F4E6"/>
<path d="M8.625 54.902L0.421876 142.402C0.37733 142.883 0.460885 143.367 0.664043 143.805C0.867201 144.243 1.18272 144.619 1.57852 144.896L28.9223 164.036C29.3816 164.357 29.9286 164.53 30.4891 164.53C31.0496 164.53 31.5965 164.357 32.0559 164.036L59.3996 144.896C59.7994 144.622 60.1192 144.247 60.3263 143.808C60.5334 143.37 60.6203 142.885 60.5781 142.402L52.375 54.902C52.3355 54.517 52.2163 54.1445 52.025 53.8082L41.6836 35.7203L52.2328 4.06719C52.3696 3.65634 52.4069 3.21887 52.3416 2.79078C52.2763 2.3627 52.1103 1.95625 51.8572 1.60488C51.6041 1.25352 51.2711 0.967296 50.8858 0.769773C50.5004 0.572251 50.0737 0.469079 49.6406 0.46875H11.3594C10.9263 0.469079 10.4996 0.572251 10.1142 0.769773C9.72884 0.967296 9.3959 1.25352 9.1428 1.60488C8.88969 1.95625 8.72364 2.3627 8.65834 2.79078C8.59304 3.21887 8.63035 3.65634 8.76719 4.06719L19.3164 35.7203L8.98594 53.7891C8.78822 54.1303 8.6652 54.5096 8.625 54.902ZM45.8453 5.9375L36.7316 33.2812H24.2684L15.1547 5.9375H45.8453ZM23.8828 38.75H37.1172L46.9609 56.0012L54.9726 141.327L30.5 158.458L6.02734 141.327L14.0281 56.0148L23.8828 38.75Z" fill="black"/>
<path d="M15.0645 135.022L30.5 149.09L45.9355 135.022C47.0999 133.993 48.0324 132.729 48.671 131.312C49.3097 129.896 49.6399 128.36 49.6399 126.806C49.6399 125.253 49.3097 123.717 48.671 122.3C48.0324 120.884 47.0999 119.62 45.9355 118.591C43.8386 116.759 41.2143 115.639 38.4404 115.393C35.6666 115.148 32.8864 115.789 30.5 117.224C28.1121 115.79 25.3308 115.152 22.5568 115.401C19.7828 115.649 17.1594 116.772 15.0645 118.607C13.8997 119.636 12.967 120.9 12.3281 122.316C11.6892 123.732 11.3588 125.268 11.3588 126.821C11.3588 128.375 11.6892 129.911 12.3281 131.327C12.967 132.743 13.8997 134.007 15.0645 135.036V135.022ZM18.7504 122.635C20.1198 121.432 21.8806 120.768 23.7037 120.768C25.5269 120.768 27.2876 121.432 28.657 122.635L30.5 124.314L32.343 122.635C33.7124 121.432 35.4731 120.768 37.2963 120.768C39.1194 120.768 40.8802 121.432 42.2496 122.635C42.8524 123.151 43.3363 123.791 43.668 124.512C43.9998 125.232 44.1716 126.016 44.1716 126.809C44.1716 127.602 43.9998 128.386 43.668 129.107C43.3363 129.827 42.8524 130.467 42.2496 130.983L30.5 141.691L18.7422 130.98C18.1395 130.465 17.6556 129.825 17.3239 129.105C16.9921 128.384 16.8203 127.601 16.8203 126.808C16.8203 126.015 16.9921 125.231 17.3239 124.511C17.6556 123.791 18.1395 123.151 18.7422 122.635H18.7504Z" fill="black"/>
<path d="M22.2969 11.4062H27.7656V16.875H22.2969V11.4062Z" fill="black"/>
<path d="M27.7656 16.875H33.2344V22.3438H27.7656V16.875Z" fill="black"/>
<path d="M24.9684 58.6645L30.2266 48.1754L25.332 45.7309L19.8633 56.6684C19.7153 56.9654 19.6227 57.2869 19.5898 57.6172L16.8555 84.9609L22.2969 85.5078L24.9684 58.6645Z" fill="black"/>
<path d="M34.0149 105.175L42.2175 96.9724L46.0839 100.839L37.8813 109.041L34.0149 105.175Z" fill="black"/>
<path d="M34.0149 94.2374L42.2175 86.0349L46.0839 89.9013L37.8813 98.1038L34.0149 94.2374Z" fill="black"/>
</svg>
